<?xml version="1.0" standalone="no"?>
<!DOCTYPE svg PUBLIC "-//W3C//DTD SVG 20010904//EN"
 "http://www.w3.org/TR/2001/REC-SVG-20010904/DTD/svg10.dtd">
<svg version="1.0" xmlns="http://www.w3.org/2000/svg"
 width="512pt" height="512pt" viewBox="0 0 512 512"
 preserveAspectRatio="xMidYMid meet">

<g transform="translate(0,512) scale(0.1,-0.1)"
fill="#000000" stroke="none">
<path d="M2660 4910 l0 -210 -140 0 -140 0 0 -150 0 -150 290 0 290 0 0 210 0
210 135 0 135 0 0 150 0 150 -285 0 -285 0 0 -210z"/>
<path d="M3905 4827 l-137 -263 -301 -43 c-166 -23 -309 -45 -317 -48 -10 -3
58 -76 213 -226 l229 -222 -54 -310 c-30 -170 -51 -311 -48 -313 3 -1 130 63
283 143 l277 146 278 -145 c153 -81 280 -146 283 -146 3 0 -19 141 -49 313
l-54 312 229 222 c155 150 223 223 213 226 -8 3 -151 25 -317 49 l-302 43
-137 262 c-76 145 -140 263 -144 263 -4 0 -69 -118 -145 -263z"/>
<path d="M1525 4280 l-210 -210 423 -423 422 -422 212 213 213 212 -420 420
c-231 231 -422 420 -425 420 -3 0 -100 -95 -215 -210z"/>
<path d="M774 3528 c-176 -178 -341 -350 -366 -383 -307 -406 -447 -896 -398
-1386 69 -678 483 -1272 1092 -1564 683 -328 1493 -233 2078 243 41 33 210
196 375 361 l300 301 -422 422 -422 422 -298 -294 c-305 -302 -346 -335 -473
-387 -105 -42 -192 -55 -325 -50 -288 12 -519 160 -640 411 -114 237 -95 520
50 742 22 33 168 189 329 352 l290 293 -419 419 c-231 231 -422 420 -425 420
-3 0 -150 -145 -326 -322z"/>
<path d="M4820 3100 l0 -140 -215 0 -215 0 0 -285 0 -285 150 0 150 0 0 135 0
135 215 0 215 0 0 290 0 290 -150 0 -150 0 0 -140z"/>
<path d="M3435 2370 l-210 -210 423 -423 422 -422 212 213 213 212 -420 420
c-231 231 -422 420 -425 420 -3 0 -100 -95 -215 -210z"/>
</g>
</svg>
